<svg xmlns="http://www.w3.org/2000/svg"  viewBox="0 0 64 64" width="64px" height="64px"><rect width="37" height="48" x="14" y="5" fill="#faefde" rx="2" ry="2"/><path fill="#cda1a7" d="M12,5h7a0,0,0,0,1,0,0V53a0,0,0,0,1,0,0H9a0,0,0,0,1,0,0V8A3,3,0,0,1,12,5Z"/><rect width="40" height="6" x="9" y="53" fill="#efd8be" rx="2" ry="2"/><path fill="#f9e3ae" d="M51 31H55V43H51z"/><path fill="#97e0bb" d="M51 21H55V33H51z"/><path fill="#ed7899" d="M51 11H55V23H51z"/><rect width="8" height="10" x="31" y="19" fill="#fff7f0" rx="4" ry="4"/><path fill="#f75f83" d="M41 42H37a1 1 0 0 0 0 2h4a1 1 0 0 0 0-2zM33 42H29a1 1 0 0 0 0 2h4a1 1 0 0 0 0-2zM39 40a1 1 0 0 0 0-2H31a1 1 0 0 0 0 2z"/><path fill="#8d6c9f" d="M19 8a1 1 0 0 0-1 1v4a1 1 0 0 0 2 0V9A1 1 0 0 0 19 8zM15 8H13a1 1 0 0 0 0 2h2a1 1 0 0 0 0-2zM15 13H13a1 1 0 0 0 0 2h2a1 1 0 0 0 0-2zM15 18H13a1 1 0 0 0 0 2h2a1 1 0 0 0 0-2zM15 23H13a1 1 0 0 0 0 2h2a1 1 0 0 0 0-2zM15 28H13a1 1 0 0 0 0 2h2a1 1 0 0 0 0-2zM15 33H13a1 1 0 0 0 0 2h2a1 1 0 0 0 0-2zM15 38H13a1 1 0 0 0 0 2h2a1 1 0 0 0 0-2zM15 43H13a1 1 0 0 0 0 2h2a1 1 0 0 0 0-2zM15 48H13a1 1 0 0 0 0 2h2a1 1 0 0 0 0-2zM39.24 27.62A5 5 0 0 0 40 25V23a5 5 0 0 0-10 0v2a5 5 0 0 0 .76 2.62 9 9 0 0 0-5.46 6.08 1 1 0 1 0 1.93.51 7 7 0 0 1 5.11-5 4.91 4.91 0 0 0 5.31 0 7 7 0 0 1 5.12 5 1 1 0 0 0 1.93-.51A9 9 0 0 0 39.24 27.62zM31.88 23a3.13 3.13 0 0 1 6.25 0V25a3.13 3.13 0 0 1-6.25 0z"/><path fill="#8d6c9f" d="M56,12a2,2,0,0,0-2-2H52V7a3,3,0,0,0-3-3H12A4,4,0,0,0,8,8V56a4,4,0,0,0,4,4H47a3,3,0,0,0,3-3V53.82A3,3,0,0,0,52,51V44.62l2.89-1.45A2,2,0,0,0,56,41.38ZM52,24.62l2-1v7.76l-2,1ZM54,12v9.38l-2,1V12ZM47,58H12a2,2,0,0,1-2-2,2.26,2.26,0,0,1,2-2H48v3A1,1,0,0,1,47,58Zm3-7a1,1,0,0,1-1,1H20V17a1,1,0,0,0-2,0V52H12a3.94,3.94,0,0,0-2,.63V8a2,2,0,0,1,2-2H49a1,1,0,0,1,1,1V51Zm2-8.62V34.62l2-1v7.76Z"/></svg>