<svg xmlns="http://www.w3.org/2000/svg"  viewBox="0 0 64 64" width="64px" height="64px"><path fill="#fff7f0" d="M40.48,55.47l-3,2a10,10,0,0,1-10.93,0l-3-2A32,32,0,0,1,9,28.67V8.42a2,2,0,0,1,1.34-1.89l.3-.11a65,65,0,0,1,42.71,0l.3.11A2,2,0,0,1,55,8.42V28.67A32,32,0,0,1,40.48,55.47Z"/><path fill="#faefde" d="M53.66,6.53l-.3-.11A65,65,0,0,0,32,2.82V59.06a10,10,0,0,0,5.46-1.62l3-2A32,32,0,0,0,55,28.67V8.42A2,2,0,0,0,53.66,6.53Z"/><path fill="#8b8e98" d="M16 24s2-3 5-3 5 3 5 3a7.65 7.65 0 0 1-5 2A7.65 7.65 0 0 1 16 24zM38 24s2-3 5-3 5 3 5 3a7.25 7.25 0 0 1-10 0z"/><path fill="#8d6c9f" d="M54,5.59l-.3-.11a66.26,66.26,0,0,0-43.37,0l-.3.11A3,3,0,0,0,8,8.42V28.67A32.89,32.89,0,0,0,23,56.31l3,2a11,11,0,0,0,12,0l3-2A32.89,32.89,0,0,0,56,28.67V8.42A3,3,0,0,0,54,5.59Zm0,23.08a30.9,30.9,0,0,1-14.07,26l-3,2a9,9,0,0,1-9.83,0l-3-2A30.9,30.9,0,0,1,10,28.67V8.42a1,1,0,0,1,.67-.94l.3-.11A64.26,64.26,0,0,1,53,7.37l.3.11a1,1,0,0,1,.67.94Z"/><path fill="#8d6c9f" d="M41.52 8.53c1.23.19 2.47.41 3.68.66l.21 0a1 1 0 0 0 .21-2c-1.25-.26-2.53-.49-3.8-.69a1 1 0 0 0-.3 2zM19.91 9l.19 0a64.15 64.15 0 0 1 15.83-1 1 1 0 1 0 .12-2A66 66 0 0 0 19.73 7a1 1 0 0 0 .19 2zM33 50H31a1 1 0 0 0 0 2h2a1 1 0 0 0 0-2zM33 46H31a1 1 0 0 0 0 2h2a1 1 0 0 0 0-2zM33 54H31a1 1 0 0 0 0 2h2a1 1 0 0 0 0-2zM21 20c-3.5 0-5.74 3.3-5.83 3.45a1 1 0 0 0 .13 1.26A8.65 8.65 0 0 0 21 27a8.65 8.65 0 0 0 5.71-2.29 1 1 0 0 0 .13-1.26C26.74 23.3 24.5 20 21 20zm0 5a6.52 6.52 0 0 1-3.58-1.15A5.21 5.21 0 0 1 21 22a5.22 5.22 0 0 1 3.59 1.85A6.47 6.47 0 0 1 21 25zM48.71 24.71a1 1 0 0 0 .13-1.26C48.74 23.3 46.5 20 43 20s-5.74 3.3-5.83 3.45a1 1 0 0 0 .13 1.26 8.25 8.25 0 0 0 11.41 0zM43 22a5.22 5.22 0 0 1 3.59 1.85 6.16 6.16 0 0 1-7.17 0A5.21 5.21 0 0 1 43 22z"/><path fill="#8d6c9f" d="M51.19 14.37A21.53 21.53 0 0 0 47.5 14c-7.38 0-11.19 6.12-11.35 6.38a1 1 0 1 0 1.71 1c0-.05 3.38-5.42 9.65-5.42a19.66 19.66 0 0 1 3.31.33 1 1 0 0 0 .38-2zM15.19 16.33A19.65 19.65 0 0 1 18.5 16c6.21 0 9.59 5.33 9.65 5.42a1 1 0 0 0 1.71-1c-.16-.26-4-6.38-11.35-6.38a21.52 21.52 0 0 0-3.69.37 1 1 0 0 0 .38 2zM48.29 35.29l-5.83 5.83a3 3 0 0 1-2.12.88H36.13a1 1 0 0 1-.86-.49L33.17 38H34a1 1 0 0 0 0-2H29.33L33 23.27A1 1 0 1 0 31 22.73L27.4 35.45A2 2 0 0 0 29.33 38h1.51l-2.11 3.51a1 1 0 0 1-.86.49H23.66a3 3 0 0 1-2.12-.88l-5.83-5.83a1 1 0 0 0-1.41 1.41l5.83 5.83A5 5 0 0 0 23.66 44h4.21a3 3 0 0 0 2.57-1.46L32 39.94l1.56 2.6A3 3 0 0 0 36.13 44h4.21a5 5 0 0 0 3.54-1.46l5.83-5.83a1 1 0 0 0-1.41-1.41z"/></svg>