<svg xmlns="http://www.w3.org/2000/svg"  viewBox="0 0 64 64" width="64px" height="64px"><path fill="#f283a5" d="M32.001,58c-6.846-0.001-16.022-0.158-19.541-0.445c-4.688-0.398-5.157-4.916-5.376-12.309 L7.07,44.808c-0.02-0.66-0.04-1.314-0.07-1.957c0.001-3.473,0.36-7.513,0.938-10.504c0.961-3.914,2.901-3.973,7.586-4.116 c0.705-0.021,1.446-0.043,2.214-0.084c0,0,0.434-0.006,0.846-0.014C20.417,28.094,24.702,28,31.839,28l0.33,0.001 c7.06,0,11.322,0.091,13.142,0.13c0,0,0.915,0.02,1.035,0.02c0.682,0.038,1.423,0.061,2.129,0.081 c4.685,0.143,6.626,0.202,7.603,4.188C56.643,35.358,57,39.395,57,42.92c-0.029,0.633-0.052,1.343-0.074,2.062l-0.008,0.26 c-0.218,7.395-0.688,11.912-5.379,12.309C48.032,57.842,38.854,57.999,32.001,58L32.001,58z"/><polygon fill="#ed7899" points="53,58 11,58 8,53 56,53"/><path fill="#8d6c9f" d="M32.001,59L32.001,59c-6.859-0.001-16.067-0.158-19.623-0.448c-5.917-0.503-6.1-6.708-6.293-13.277 l-0.014-0.434c-0.02-0.656-0.04-1.305-0.07-1.942c0-3.595,0.366-7.692,0.955-10.74c1.153-4.7,3.775-4.78,8.535-4.925 c0.707-0.022,1.436-0.044,2.193-0.085l0.88-0.015C20.401,27.094,24.697,27,31.839,27l0.333,0.001c6.949,0,11.236,0.09,13.066,0.128 c0.096,0.002,0.991,0.022,1.108,0.022c0.729,0.038,1.46,0.062,2.158,0.081c4.764,0.146,7.387,0.226,8.545,4.949 C57.64,35.248,58,39.343,58,42.92c-0.03,0.674-0.052,1.38-0.074,2.093l-0.008,0.263c-0.194,6.567-0.377,12.772-6.294,13.273 C48.085,58.841,38.874,58.999,32.001,59z M31.836,29c-7.117,0-11.398,0.094-13.226,0.134l-0.859,0.014 c-0.733,0.04-1.478,0.062-2.188,0.084c-4.851,0.147-5.901,0.286-6.654,3.354C8.354,35.47,8.001,39.422,8,42.852 c0.029,0.601,0.05,1.261,0.07,1.927l0.014,0.435c0.24,8.114,0.949,11.047,4.46,11.346c3.5,0.285,12.637,0.44,19.457,0.441 c6.833-0.001,15.974-0.157,19.456-0.444c3.512-0.297,4.223-3.23,4.462-11.342l0.008-0.264c0.022-0.723,0.045-1.438,0.074-2.076 C56,39.461,55.654,35.51,55.097,32.608c-0.759-3.089-1.81-3.229-6.65-3.376c-0.716-0.021-1.465-0.045-2.155-0.083 c-0.075,0.037-1.003-0.019-1.003-0.019c-1.917-0.04-6.189-0.13-13.12-0.13L31.836,29z"/><path fill="#8d6c9f" d="M21,23c-0.552,0-1-0.447-1-1v-6.741l-4.874-8.773c-0.269-0.482-0.094-1.091,0.388-1.359 c0.484-0.271,1.092-0.094,1.36,0.389l5,9C21.957,14.663,22,14.83,22,15v7C22,22.553,21.552,23,21,23z"/><path fill="#8d6c9f" d="M20.999,16c-0.164,0-0.331-0.04-0.485-0.126c-0.482-0.269-0.657-0.877-0.388-1.359l5-9 c0.268-0.482,0.876-0.659,1.36-0.389c0.482,0.269,0.657,0.877,0.388,1.359l-5,9C21.691,15.814,21.351,16,20.999,16z"/><path fill="#8d6c9f" d="M31.5,23c-2.481,0-4.5-2.019-4.5-4.5v-2c0-2.481,2.019-4.5,4.5-4.5s4.5,2.019,4.5,4.5v2 C36,20.981,33.981,23,31.5,23z M31.5,14c-1.378,0-2.5,1.121-2.5,2.5v2c0,1.379,1.122,2.5,2.5,2.5s2.5-1.121,2.5-2.5v-2 C34,15.121,32.878,14,31.5,14z"/><path fill="#8d6c9f" d="M43.5,23c-2.481,0-4.5-2.019-4.5-4.5V13c0-0.553,0.448-1,1-1s1,0.447,1,1v5.5 c0,1.379,1.122,2.5,2.5,2.5s2.5-1.121,2.5-2.5V13c0-0.553,0.448-1,1-1s1,0.447,1,1v5.5C48,20.981,45.981,23,43.5,23z"/><path fill="#fff8ee" d="M25.5,49c-2.481,0-4.5-2.019-4.5-4.5V39c0-0.553,0.448-1,1-1s1,0.447,1,1v5.5 c0,1.379,1.122,2.5,2.5,2.5s2.5-1.121,2.5-2.5V39c0-0.553,0.448-1,1-1s1,0.447,1,1v5.5C30,46.981,27.981,49,25.5,49z"/><path fill="#fff8ee" d="M16,49c-0.552,0-1-0.447-1-1V33c0-0.553,0.448-1,1-1s1,0.447,1,1v15C17,48.553,16.552,49,16,49z"/><path fill="#fff8ee" d="M20,34h-8c-0.552,0-1-0.447-1-1s0.448-1,1-1h8c0.552,0,1,0.447,1,1S20.552,34,20,34z"/><path fill="#fff8ee" d="M49.5,49c-2.481,0-4.5-2.019-4.5-4.5v-2c0-2.481,2.019-4.5,4.5-4.5s4.5,2.019,4.5,4.5V43 c0,0.553-0.448,1-1,1h-6v0.5c0,1.379,1.122,2.5,2.5,2.5c0.96,0,1.848-0.561,2.26-1.429c0.236-0.5,0.834-0.71,1.332-0.475 c0.499,0.237,0.711,0.833,0.475,1.332C52.825,47.991,51.229,49,49.5,49z M47.05,42h4.899c-0.232-1.14-1.242-2-2.45-2 S47.283,40.86,47.05,42z"/><path fill="#fff8ee" d="M34,49c-0.552,0-1-0.447-1-1V33c0-0.553,0.448-1,1-1s1,0.447,1,1v15C35,48.553,34.552,49,34,49z"/><path fill="#fff8ee" d="M36.5,49H34c-0.552,0-1-0.447-1-1s0.448-1,1-1h2.5c1.93,0,3.5-1.57,3.5-3.5S38.43,40,36.5,40H34 c-0.552,0-1-0.447-1-1s0.448-1,1-1h2.5c3.033,0,5.5,2.468,5.5,5.5S39.533,49,36.5,49z"/><g><path fill="#8d6c9f" d="M12,55c0.552,0,1-0.448,1-1v-2c0-0.552-0.448-1-1-1s-1,0.448-1,1v2C11,54.552,11.448,55,12,55z"/><path fill="#8d6c9f" d="M17,55c0.552,0,1-0.448,1-1v-2c0-0.552-0.448-1-1-1s-1,0.448-1,1v2C16,54.552,16.448,55,17,55z"/><path fill="#8d6c9f" d="M22,55c0.552,0,1-0.448,1-1v-2c0-0.552-0.448-1-1-1s-1,0.448-1,1v2C21,54.552,21.448,55,22,55z"/><path fill="#8d6c9f" d="M32,55c0.552,0,1-0.448,1-1v-2c0-0.552-0.448-1-1-1s-1,0.448-1,1v2C31,54.552,31.448,55,32,55z"/><path fill="#8d6c9f" d="M27,55c0.552,0,1-0.448,1-1v-2c0-0.552-0.448-1-1-1s-1,0.448-1,1v2C26,54.552,26.448,55,27,55z"/><path fill="#8d6c9f" d="M37,55c0.552,0,1-0.448,1-1v-2c0-0.552-0.448-1-1-1s-1,0.448-1,1v2C36,54.552,36.448,55,37,55z"/><path fill="#8d6c9f" d="M42,55c0.552,0,1-0.448,1-1v-2c0-0.552-0.448-1-1-1s-1,0.448-1,1v2C41,54.552,41.448,55,42,55z"/><path fill="#8d6c9f" d="M47,55c0.552,0,1-0.448,1-1v-2c0-0.552-0.448-1-1-1s-1,0.448-1,1v2C46,54.552,46.448,55,47,55z"/><path fill="#8d6c9f" d="M52,55c0.552,0,1-0.448,1-1v-2c0-0.552-0.448-1-1-1s-1,0.448-1,1v2C51,54.552,51.448,55,52,55z"/></g></svg>